<?xml version="1.0" standalone="no"?>
<!DOCTYPE svg PUBLIC "-//W3C//DTD SVG 20010904//EN"
 "http://www.w3.org/TR/2001/REC-SVG-20010904/DTD/svg10.dtd">
<svg version="1.0" xmlns="http://www.w3.org/2000/svg"
 width="717.000000pt" height="726.000000pt" viewBox="0 0 717.000000 726.000000"
 preserveAspectRatio="xMidYMid meet">

<g transform="translate(0.000000,726.000000) scale(0.100000,-0.100000)"
fill="#000000" stroke="none">
<path d="M614 6841 c-38 -23 -64 -58 -64 -86 0 -12 22 -63 49 -115 87 -169
132 -350 134 -548 1 -65 -2 -220 -7 -347 -9 -248 -2 -328 46 -475 64 -197 210
-399 373 -515 135 -96 314 -164 453 -173 45 -2 84 -8 87 -12 9 -15 -57 -247
-97 -340 -23 -52 -53 -124 -69 -160 -50 -120 -97 -274 -109 -365 -17 -126 -14
-318 5 -422 29 -154 134 -382 239 -517 l44 -57 -40 -61 c-63 -94 -195 -374
-223 -473 -45 -156 -60 -290 -47 -429 17 -183 47 -281 134 -433 194 -338 495
-552 996 -708 411 -128 1010 -192 1402 -150 74 8 222 24 329 35 386 41 687
127 971 277 140 74 220 128 318 215 475 425 544 1042 183 1626 -34 55 -61 102
-61 106 0 3 29 48 64 99 83 120 135 226 179 362 47 147 61 260 53 412 -11 216
-49 348 -174 620 -46 97 -78 185 -96 255 -14 59 -26 109 -26 111 0 2 35 7 79
10 175 12 380 111 537 260 166 158 270 342 314 557 21 98 22 119 14 310 -14
341 -11 553 10 643 22 96 71 221 120 304 42 72 53 112 36 142 -16 30 -69 61
-105 61 -29 0 -185 -37 -455 -109 -178 -47 -297 -68 -546 -96 -242 -27 -303
-39 -450 -85 -115 -37 -210 -80 -282 -127 -96 -63 -229 -199 -285 -290 -27
-46 -52 -83 -53 -83 -2 0 -26 14 -54 31 -66 40 -220 95 -344 122 l-99 22 -21
65 c-11 36 -33 86 -48 112 -38 64 -131 144 -198 169 -116 44 -261 34 -326 -23
-28 -25 -34 -37 -34 -72 0 -28 -9 -54 -28 -82 -66 -98 -98 -123 -197 -154
-248 -77 -330 -107 -409 -148 -53 -27 -91 -41 -93 -35 -12 34 -86 142 -140
202 -80 88 -173 158 -293 220 -168 87 -324 128 -598 156 -252 26 -401 55 -776
150 -121 30 -235 55 -255 55 -20 0 -50 -9 -67 -19z m381 -221 c302 -73 489
-107 660 -120 83 -6 191 -18 240 -26 352 -57 627 -261 741 -547 15 -38 33 -71
41 -74 7 -3 44 15 81 40 133 89 298 154 500 197 117 25 203 65 270 126 71 63
83 112 57 215 -6 22 -3 27 18 33 34 8 108 -7 148 -30 77 -45 100 -137 58 -233
-32 -75 -143 -163 -243 -193 -39 -11 -75 -24 -80 -29 -16 -14 4 -58 34 -74
107 -55 349 40 418 165 15 27 30 50 35 50 15 0 6 -67 -17 -115 -44 -95 -137
-160 -298 -209 -49 -15 -88 -30 -88 -34 0 -15 16 -30 50 -48 52 -28 208 -27
270 2 104 48 211 181 240 297 14 54 21 56 113 32 105 -27 205 -72 301 -134 52
-33 100 -61 108 -60 7 0 39 54 70 119 32 65 78 143 103 174 83 101 252 220
370 261 166 56 256 71 570 95 162 12 331 44 495 94 136 40 280 75 280 66 0 -3
-37 -36 -82 -72 -46 -36 -123 -98 -171 -137 -86 -71 -328 -230 -459 -304 -69
-39 -83 -44 -73 -27 4 6 -7 13 -24 16 -17 4 -31 11 -31 16 0 13 26 38 39 38 6
0 11 5 11 10 0 15 -19 12 -36 -5 -9 -8 -22 -15 -31 -15 -13 0 -13 3 -2 18 13
16 13 16 -7 0 -11 -10 -28 -18 -36 -18 -9 0 -18 -4 -20 -10 -1 -5 -15 -11 -30
-12 -16 -1 -28 -6 -28 -11 0 -4 -4 -5 -10 -2 -5 3 -10 1 -10 -5 0 -6 -5 -8
-10 -5 -6 3 -46 -13 -91 -37 -124 -66 -319 -270 -302 -316 4 -9 2 -13 -4 -9
-6 4 -20 -15 -32 -45 -17 -41 -21 -69 -20 -152 l2 -101 9 62 c9 61 11 63 44
69 19 3 40 4 48 1 10 -4 16 2 19 16 2 12 2 -19 -1 -68 -6 -115 8 -166 98 -350
77 -158 92 -202 115 -330 25 -138 100 -441 130 -525 15 -41 49 -118 75 -170
70 -142 137 -315 155 -405 23 -112 31 -315 15 -401 -14 -74 -47 -181 -77 -253
l-19 -44 0 41 c1 23 4 42 8 42 4 0 1 12 -7 26 -8 15 -11 41 -8 60 3 19 3 34 1
34 -3 0 -22 -39 -42 -88 -69 -164 -252 -367 -438 -488 -340 -219 -549 -319
-853 -407 -365 -106 -653 -138 -910 -102 -347 48 -711 162 -1000 313 -60 32
-129 66 -151 75 -23 9 -76 38 -118 66 l-77 50 40 11 c23 6 45 19 51 30 17 31
11 90 -12 131 -21 38 -21 39 -3 59 11 12 19 36 19 62 1 37 -3 45 -41 74 l-42
32 34 21 c45 26 72 81 59 118 -5 15 -29 40 -52 56 -55 37 -97 32 -141 -19 -44
-50 -43 -96 5 -140 19 -19 40 -34 45 -34 5 0 -8 -17 -30 -38 -52 -49 -61 -84
-31 -124 l23 -31 -21 -41 c-12 -23 -23 -47 -25 -55 -7 -32 -213 234 -281 364
-32 61 -32 43 -2 -50 17 -50 20 -75 14 -89 -8 -15 -12 -16 -23 -5 -18 18 -94
200 -112 264 -34 128 -25 359 22 533 24 89 68 204 140 362 39 86 112 340 149
515 14 66 34 161 44 210 25 116 96 298 158 405 45 76 49 90 53 159 3 77 12 95
44 85 9 -3 17 -1 17 5 0 6 13 11 29 11 25 0 30 5 35 35 10 49 -2 105 -22 105
-12 0 -13 3 -5 11 17 17 -34 113 -96 181 -113 123 -218 193 -374 248 -97 34
-153 42 -149 21 2 -11 -12 -13 -75 -9 -43 3 -69 2 -58 -3 19 -7 19 -8 1 -8
-45 -2 -235 120 -476 305 -209 161 -275 218 -245 210 11 -3 114 -28 230 -56z
m-10 -470 c48 -44 115 -141 147 -210 17 -35 35 -105 44 -165 10 -65 68 -222
110 -297 115 -209 286 -361 459 -409 l60 -16 -3 -49 c-2 -27 -10 -64 -18 -83
l-14 -34 -103 6 c-251 14 -448 133 -612 370 -44 64 -84 116 -88 116 -5 1 -6
-3 -3 -8 3 -5 0 -23 -7 -40 l-13 -32 -12 25 c-6 14 -19 63 -28 108 -20 97 -23
246 -10 586 9 225 10 231 26 205 10 -16 39 -48 65 -73z m5440 -72 c0 -90 6
-228 14 -308 11 -118 12 -158 2 -217 -13 -72 -13 -73 -44 -73 -16 0 -27 -3
-24 -7 4 -3 2 -12 -5 -20 -6 -7 -8 -16 -5 -20 6 -6 -7 -36 -25 -57 -4 -6 -30
-47 -56 -92 -90 -151 -184 -241 -327 -311 -111 -54 -198 -76 -300 -77 l-90 -1
-22 65 c-33 97 -33 96 50 121 39 12 92 32 117 44 63 32 159 108 199 158 101
125 199 311 240 455 54 189 64 220 86 262 32 61 168 239 185 240 3 0 5 -73 5
-162z m-4370 -3395 c-16 -8 -41 -25 -54 -37 l-23 -21 23 37 c19 29 30 37 54
37 l30 0 -30 -16z m340 -528 c188 -91 408 -173 591 -218 148 -37 323 -67 394
-67 23 0 40 -4 38 -8 -5 -14 -308 -293 -383 -354 -91 -73 -202 -147 -232 -154
-13 -4 -49 -4 -79 -2 -47 4 -60 10 -94 43 -71 70 -195 266 -297 470 -89 178
-173 374 -173 405 0 6 19 -1 43 -15 23 -15 110 -60 192 -100z m2785 101 c0
-13 -105 -246 -232 -516 -44 -93 -161 -264 -227 -331 -64 -66 -104 -79 -175
-59 -67 18 -284 186 -426 329 -68 69 -140 138 -158 153 -23 19 -30 29 -21 32
8 3 95 16 194 30 138 20 217 37 340 75 175 55 423 159 599 253 61 32 106 47
106 34z m-3623 -333 c-3 -10 -5 -4 -5 12 0 17 2 24 5 18 2 -7 2 -21 0 -30z
m2213 -163 c43 -22 54 -35 56 -65 2 -40 4 -45 20 -45 8 0 13 -4 9 -9 -3 -5 6
-26 20 -47 14 -21 25 -51 25 -70 0 -44 -32 -114 -64 -142 -15 -12 -24 -28 -20
-34 4 -6 3 -8 -4 -5 -12 8 -44 -2 -38 -12 9 -14 -102 -18 -182 -6 -50 7 -54 6
-51 -11 5 -25 -1 -27 -32 -16 -33 13 -69 56 -114 136 -58 104 -58 109 26 199
120 131 249 178 349 127z m-533 -412 c21 -40 63 -99 95 -131 57 -58 57 -58 43
-90 -8 -18 -51 -126 -96 -240 -45 -114 -85 -206 -88 -205 -3 2 -65 64 -137
138 -126 131 -207 226 -289 339 l-39 54 46 -6 c92 -13 206 36 346 147 34 27
62 53 62 58 0 26 24 -1 57 -64z m991 7 c129 -109 250 -158 344 -138 29 6 54
10 55 9 3 -3 -127 -186 -184 -258 -61 -78 -281 -299 -288 -288 -2 3 -12 29
-21 56 -30 89 -114 298 -146 361 l-32 62 55 58 c72 76 104 120 120 166 7 20
15 37 17 37 2 0 38 -29 80 -65z m-409 -68 c-2 -1 -12 -9 -22 -16 -15 -12 -17
-12 -11 3 3 9 13 16 22 16 8 0 13 -1 11 -3z m-92 -43 c-3 -3 -12 -4 -19 -1 -8
3 -5 6 6 6 11 1 17 -2 13 -5z m-92 -174 c55 0 62 -2 80 -29 11 -17 21 -28 23
-26 5 5 32 -21 32 -30 0 -3 9 -18 19 -33 11 -15 27 -62 36 -105 9 -43 21 -75
26 -71 5 3 9 2 7 -3 -4 -15 14 -73 24 -79 6 -4 8 -2 4 4 -8 14 21 42 44 42 13
0 24 -16 40 -56 11 -31 18 -59 15 -63 -9 -9 -622 -8 -631 1 -8 9 65 191 143
357 41 88 56 112 65 103 7 -7 39 -12 73 -12z m224 -112 c14 -32 17 -48 9 -70
-14 -38 -25 -35 -32 10 -8 48 -8 102 0 102 2 0 12 -19 23 -42z m65 -153 c3 -9
0 -15 -9 -15 -9 0 -12 6 -9 15 4 8 7 15 9 15 2 0 5 -7 9 -15z m11 -36 c11 -17
-1 -21 -15 -4 -8 9 -8 15 -2 15 6 0 14 -5 17 -11z"/>
<path d="M5728 6223 c7 -3 16 -2 19 1 4 3 -2 6 -13 5 -11 0 -14 -3 -6 -6z"/>
<path d="M4582 5584 c-33 -23 -31 -86 4 -113 35 -27 65 -27 92 2 26 27 29 73
6 105 -18 26 -69 30 -102 6z"/>
<path d="M2577 5574 c-158 -35 -247 -86 -368 -211 -87 -89 -108 -125 -145
-250 -23 -75 -27 -108 -27 -223 -1 -99 4 -153 16 -201 l18 -66 -41 -40 c-49
-49 -51 -76 -8 -120 l31 -32 -26 -38 c-15 -21 -30 -53 -33 -71 -6 -29 -2 -37
35 -72 l41 -39 -35 -33 c-46 -43 -55 -88 -24 -119 22 -22 22 -23 6 -52 -19
-32 -22 -98 -7 -128 13 -22 61 -49 90 -49 39 0 78 28 90 65 10 30 9 44 -6 84
-16 45 -16 50 0 72 25 36 20 79 -14 121 l-30 36 30 30 c25 26 30 38 30 79 0
40 -5 54 -25 73 -30 28 -32 46 -5 53 15 4 25 -3 37 -26 10 -18 16 -35 15 -39
-1 -5 3 -8 8 -8 6 0 10 -6 9 -12 -1 -7 -1 -36 0 -64 1 -42 6 -56 31 -83 17
-17 28 -36 25 -41 -4 -6 7 -10 24 -10 18 0 40 -9 52 -21 13 -13 27 -18 42 -14
15 4 18 3 9 -3 -9 -6 5 -15 50 -28 45 -13 103 -19 205 -21 138 -3 178 1 168
17 -2 4 10 7 27 8 34 1 54 21 35 35 -7 5 -3 6 11 2 16 -5 22 -2 22 10 0 13 6
16 25 13 14 -3 25 -2 25 2 0 4 7 11 16 14 20 8 17 3 -76 -120 -124 -163 -170
-275 -177 -438 -6 -119 5 -187 43 -275 29 -65 30 -81 4 -108 -12 -13 -19 -33
-17 -52 2 -27 6 -31 30 -31 21 0 44 -15 85 -54 l56 -54 -41 -7 c-38 -6 -59
-25 -54 -49 3 -15 -51 3 -129 42 -301 150 -367 503 -101 541 80 11 89 76 16
107 -99 41 -242 -25 -311 -142 -35 -59 -44 -183 -21 -265 60 -205 282 -417
497 -475 47 -13 76 -29 105 -56 22 -21 45 -38 52 -38 6 0 15 -4 18 -10 3 -6
-1 -7 -12 -4 -10 3 -7 -1 7 -9 37 -22 134 -39 177 -32 73 13 179 47 340 111
89 35 170 64 180 64 11 0 64 -17 119 -39 141 -54 208 -77 298 -100 155 -40
227 -44 292 -15 40 18 97 76 97 98 0 8 25 21 56 31 249 78 452 281 497 496 24
114 -4 241 -69 315 -63 72 -137 101 -223 88 -59 -8 -87 -34 -78 -72 13 -60 12
-59 70 -64 66 -6 99 -28 132 -89 48 -90 12 -232 -86 -332 -46 -48 -153 -118
-201 -132 -22 -7 -23 -5 -18 21 5 27 -11 54 -32 54 -23 0 -9 16 42 49 28 18
58 37 65 40 16 10 -1 61 -21 61 -7 0 -23 20 -36 44 l-22 45 22 63 c13 38 23
98 26 153 9 165 -33 289 -162 485 -81 122 -151 199 -263 288 -111 87 -175 123
-289 161 -78 27 -106 31 -193 31 -152 0 -290 -36 -430 -114 l-65 -36 44 39
c29 26 42 44 38 55 -4 9 0 34 8 57 21 57 20 75 -1 54 -25 -24 -27 -12 -6 27
11 19 30 63 43 98 20 55 24 61 29 40 5 -20 7 -22 12 -9 6 14 54 41 143 81 12
5 92 6 188 1 153 -7 167 -7 167 9 0 28 29 48 71 48 l39 0 0 53 c0 43 -5 58
-22 74 -46 41 -87 46 -348 41 l-246 -6 -12 58 c-25 121 -121 265 -242 365
-145 120 -364 177 -533 139z m259 -179 c57 -16 174 -95 221 -148 49 -56 111
-192 123 -271 34 -220 -84 -455 -274 -545 -290 -139 -618 27 -698 353 -20 80
-21 97 -10 178 14 113 71 238 141 307 51 52 171 116 253 137 61 15 167 11 244
-11z m405 -908 l-23 -22 17 28 c10 15 20 25 23 22 3 -3 -5 -16 -17 -28z m619
-176 c101 -32 185 -87 298 -195 104 -101 192 -217 231 -308 33 -78 53 -195 46
-267 -6 -60 -11 -69 -71 -141 -56 -68 -74 -82 -151 -120 -49 -24 -96 -47 -107
-52 -30 -16 -194 -12 -304 7 -105 17 -128 17 -287 -6 -126 -19 -269 -14 -320
12 -71 34 -135 89 -182 154 -45 61 -67 72 -76 37 -8 -37 -29 79 -30 163 0 108
18 166 86 280 100 167 271 335 410 403 130 64 318 78 457 33z"/>
<path d="M3965 3915 c-5 -2 -22 -6 -37 -9 -111 -25 -177 -223 -115 -346 12
-25 29 -45 37 -45 8 -1 35 -15 59 -33 36 -26 53 -32 95 -32 57 0 71 8 142 75
25 25 50 42 55 39 5 -3 9 25 9 63 0 135 -93 261 -210 286 -14 3 -29 4 -35 2z"/>
<path d="M3305 3892 c-44 -21 -90 -73 -125 -142 -55 -108 -26 -286 43 -261 15
6 29 3 48 -12 38 -27 108 -33 148 -13 41 21 85 83 101 141 7 25 15 43 18 40
10 -10 31 31 32 61 0 47 -54 145 -95 173 -48 32 -118 38 -170 13z"/>
<path d="M4522 5105 c-58 -30 -132 -108 -162 -172 -14 -30 -20 -64 -20 -113 0
-187 124 -314 306 -313 146 1 269 113 283 257 5 51 9 61 26 64 78 12 135 58
135 110 0 26 -18 32 -92 32 -60 0 -62 1 -119 55 -75 71 -133 97 -229 102 -66
4 -81 1 -128 -22z m159 -164 c32 -33 37 -67 15 -110 -28 -53 -90 -78 -142 -56
-38 16 -54 41 -54 85 0 42 15 67 53 90 47 29 93 26 128 -9z"/>
<path d="M2055 3794 c-43 -22 -65 -54 -65 -96 0 -53 41 -97 96 -105 36 -5 45
-1 77 27 32 27 37 38 37 74 0 44 -25 78 -77 105 -28 14 -32 14 -68 -5z"/>
<path d="M5245 3630 c-27 -11 -56 -45 -91 -104 -25 -44 -26 -49 -9 -42 38 15
130 26 163 20 72 -14 120 -99 106 -190 -10 -71 -57 -130 -146 -183 -42 -25
-86 -55 -98 -65 -29 -27 -23 -67 10 -76 31 -8 93 7 85 20 -4 6 0 10 9 10 8 0
17 13 21 29 10 45 43 68 108 75 94 10 116 31 143 138 51 196 -68 380 -242 377
-22 0 -48 -4 -59 -9z"/>
<path d="M2055 3548 c-48 -26 -65 -51 -65 -94 0 -62 31 -95 96 -101 45 -5 53
-2 82 25 26 25 32 38 32 72 0 36 -6 47 -37 76 -38 35 -72 42 -108 22z"/>
<path d="M3620 2557 c-27 -14 -50 -69 -42 -100 5 -21 58 -57 84 -57 9 0 29 10
43 23 71 61 -2 175 -85 134z"/>
<path d="M3369 2505 c-55 -30 -77 -105 -41 -138 33 -30 78 -40 109 -25 61 29
67 95 13 149 -32 32 -44 34 -81 14z"/>
<path d="M3878 2493 c-52 -32 -63 -99 -23 -138 36 -37 79 -33 121 9 41 41 43
73 8 115 -29 35 -64 40 -106 14z"/>
</g>
</svg>
